name GIL02_xslow2Moments.mot
datacolumns 7
datarows 60
range 0.42499983 0.91666651
endheader

                time	          RHipMoment	          LHipMoment	         RKneeMoment	         LKneeMoment	        RAnkleMoment	        LAnkleMoment	
          0.42499983	        -48.68302917	        352.22909546	        -16.99563408	       -374.78457642	        -32.01184464	        442.78912354	
          0.43333319	        -54.15779877	        345.63046265	         -9.89196968	       -374.89874268	        -35.49699020	        447.32064819	
          0.44166651	        -73.00226593	        334.17697144	          3.14090633	       -372.02185059	        -37.82616043	        451.17477417	
          0.44999984	        -96.02833557	        316.58868408	         20.24700737	       -365.10134888	        -38.80008316	        453.64627075	
          0.45833316	       -120.80578613	        294.80990601	         36.47158051	       -356.18554688	        -37.56157303	        456.78695679	
          0.46666652	       -148.21653748	        266.96194458	         49.36902618	       -344.75326538	        -34.22824478	        460.08474731	
          0.47499985	       -171.31114197	        241.25119019	         58.34222794	       -335.28710938	        -28.97336769	        464.13577271	
          0.48333317	       -187.68061829	        226.59265137	         64.32226563	       -331.19522095	        -23.05945778	        468.39337158	
          0.49166650	       -184.01008606	        228.02041626	         63.19827652	       -334.75515747	        -16.34617233	        473.96713257	
          0.49999985	       -167.68063354	        237.77622986	         59.38683701	       -342.55877686	        -10.63275242	        481.44631958	
          0.50833321	       -144.32351685	        244.69573975	         53.59184265	       -348.40670776	         -6.31896210	        489.12002563	
          0.51666653	       -113.17411804	        247.57408142	         47.02764130	       -352.49255371	         -4.16680670	        497.17184448	
          0.52499986	        -84.21955109	        244.25653076	         39.72333145	       -354.01852417	         -3.52146316	        505.37875366	
          0.53333318	        -65.58663940	        234.55761719	         33.42771149	       -352.46621704	         -4.13966942	        514.23046875	
          0.54166651	        -65.24872589	        220.85775757	         29.20562363	       -349.45852661	         -5.26283312	        525.36779785	
          0.54999983	        -73.81465149	        207.23999023	         27.14765358	       -346.85806274	         -6.75234175	        538.65026855	
          0.55833316	        -87.37458038	        200.43075562	         24.38996887	       -348.09582520	         -7.81558418	        554.07049561	
          0.56666648	        -97.07234192	        195.68449402	         21.00541496	       -349.32266235	         -8.64625645	        568.66192627	
          0.57499981	       -108.76508331	        191.69004822	         16.68064117	       -349.32214355	         -9.33875275	        582.73608398	
          0.58333319	       -110.75335693	        191.36647034	          9.58518410	       -349.12744141	        -10.02570534	        596.40008545	
          0.59166652	       -108.23603821	        188.94259644	         -1.33991146	       -348.06460571	        -10.53520584	        610.21905518	
          0.59999985	        -97.49045563	        182.88066101	        -13.66085434	       -346.63494873	        -10.80236816	        626.10107422	
          0.60833317	        -92.10948944	        166.20124817	        -23.34284782	       -341.42279053	        -10.95840263	        644.86340332	
          0.61666650	        -84.43016815	        143.18804932	        -29.79460716	       -333.10302734	        -11.08319283	        665.52984619	
          0.62499982	        -75.98295593	        123.99965668	        -35.52932739	       -326.24023438	        -11.14519882	        687.88916016	
          0.63333321	        -63.16770172	        111.32099152	        -39.91963577	       -321.11032104	        -11.20973110	        710.15216064	
          0.64166653	        -56.24618912	        104.92995453	        -42.02376175	       -316.78680420	        -11.48012924	        731.12268066	
          0.64999986	        -48.20447922	        105.91096497	        -43.64672852	       -314.93307495	        -11.89311790	        751.37084961	
          0.65833318	        -36.91915894	        112.54043579	        -48.35850525	       -315.81454468	        -12.16501999	        770.18273926	
          0.66666651	        -18.91109467	        121.58860016	        -55.49753571	       -319.85809326	        -12.17894745	        788.23095703	
          0.67499983	         -8.86139679	        126.31063843	        -60.63688660	       -325.65301514	        -12.02718639	        805.50238037	
          0.68333316	         -2.91280460	        126.03267670	        -62.89212418	       -333.13546753	        -11.81236076	        821.29803467	
          0.69166648	          0.00915709	        120.51311493	        -64.75410461	       -341.75643921	        -11.56405163	        837.02233887	
          0.69999981	          6.50443792	        110.34918213	        -66.73550415	       -350.16351318	        -11.23897934	        851.83178711	
          0.70833313	          5.43070889	         95.59050751	        -66.95641327	       -357.44009399	        -10.95934486	        866.01141357	
          0.71666652	         -6.15014458	         82.68357086	        -64.40708923	       -365.78948975	        -10.75472832	        881.09167480	
          0.72499985	        -27.23441696	         75.55286407	        -59.11676407	       -374.31787109	        -10.48271751	        895.00402832	
          0.73333317	        -50.80508804	         78.61070251	        -52.98227692	       -385.16842651	        -10.09919739	        909.37615967	
          0.74166650	        -76.10915375	         84.54830170	        -47.97097397	       -397.32290649	         -9.63705158	        925.01202393	
          0.74999988	        -91.80986786	         83.58778381	        -46.26805878	       -406.57788086	         -9.17475605	        940.22546387	
          0.75833321	        -89.39160919	         79.83232117	        -49.62847519	       -414.16357422	         -8.71505356	        954.73205566	
          0.76666653	        -56.65262222	         72.41618347	        -59.96025467	       -420.00607300	         -8.16060829	        969.38507080	
          0.77499986	         -0.81883520	         62.07721329	        -76.39811707	       -425.01239014	         -7.51085424	        983.30792236	
          0.78333318	         65.31278992	         54.57962418	        -93.94954681	       -430.86712646	         -6.85958481	        996.28662109	
          0.79166651	        114.50634766	         57.39802551	       -105.66936493	       -438.30969238	         -6.35061264	       1007.70581055	
          0.79999983	        135.83563232	         69.49407196	       -106.74887848	       -446.08560181	         -6.02421856	       1018.20446777	
          0.80833316	        119.66697693	         79.69963074	        -98.94243622	       -451.02185059	         -5.82100153	       1028.25146484	
          0.81666648	         83.64877319	         82.06885529	        -87.14704895	       -452.09613037	         -5.73615408	       1036.76916504	
          0.82499981	         33.35510254	         71.50545502	        -74.72111511	       -448.15554810	         -5.73814058	       1045.07153320	
          0.83333313	         -5.62416220	         54.08364868	        -64.97591400	       -440.88925171	         -5.66291332	       1052.26757813	
          0.84166652	        -33.43624878	         33.94628143	        -61.12083435	       -431.79882813	         -5.41274071	       1057.94714355	
          0.84999985	        -30.87186813	         25.74581909	        -63.85536194	       -427.36102295	         -5.00469255	       1063.36584473	
          0.85833317	        -14.73874855	         30.91233635	        -71.04998779	       -428.26568604	         -4.60613680	       1069.82775879	
          0.86666650	          5.81090879	         49.03256989	        -77.63921356	       -434.20959473	         -4.49020529	       1077.90002441	
          0.87499988	         13.00541401	         71.49545288	        -80.55750275	       -441.21466064	         -4.74960518	       1087.56970215	
          0.88333321	         15.79641151	         92.42571259	        -81.40831757	       -448.43453979	         -5.29586411	       1099.35339355	
          0.89166653	         13.76168728	        100.64711761	        -82.11169434	       -451.60858154	         -5.99766111	       1113.58325195	
          0.89999986	         18.41589355	         93.88959503	        -83.72923279	       -448.68710327	         -6.65389395	       1129.94189453	
          0.90833318	         19.15537834	         73.68340302	        -85.88492584	       -440.24316406	         -7.09965849	       1149.75402832	
          0.91666651	         20.75636482	         22.22817802	        -88.43720245	       -415.46194458	         -7.22786570	       1169.99938965	
